<?xml version="1.0" encoding="UTF-8" standalone="no"?>
<!-- Created with Inkscape (http://www.inkscape.org/) -->

<svg
   width="120"
   height="120"
   viewBox="0 0 120 120"
   version="1.1"
   id="svg1"
   xml:space="preserve"
   xmlns="http://www.w3.org/2000/svg"
   xmlns:svg="http://www.w3.org/2000/svg"><defs
     id="defs1" /><g
     id="g896"
     style="display:inline"
     transform="matrix(6,0,0,6,-94.992745,-52.753684)"><g
       id="g895"
       style="display:inline"
       transform="matrix(0.35870929,0,0,0.35870929,12.059286,-6.8494646)"><g
         id="g883"
         style="display:inline;opacity:1"><path
           id="path858"
           style="display:inline;opacity:1;fill:#8ec64a;fill-opacity:1;stroke:#29601c;stroke-width:0.3;stroke-dasharray:none;stroke-opacity:1"
           d="m 45.852307,53.019278 c -5.562255,1.365341 -8.743353,4.007681 -9.642695,8.534858 -0.254133,1.279277 -0.355674,1.898013 -0.314173,3.189142 0.02658,1.228041 0.13869,2.781813 1.828071,6.026566 0.859401,1.650631 1.472689,2.447003 2.57288,3.849593 0.648372,0.826582 1.908316,0.341118 1.320809,-1.350582 -0.425303,-1.224644 -0.713444,-0.949279 -0.676396,-1.545092 2.379326,1.738482 5.431623,2.696915 8.591366,2.697722 1.397061,-0.0069 2.783748,-0.201189 4.107209,-0.575409 0.553407,0.836345 1.099954,1.757385 1.408214,2.064933 0.596225,0.594847 2.004885,1.017081 3.158763,0.218455 0.940259,-0.650774 -0.09566,-1.680154 -0.09566,-1.680154 0,0 -0.39004,-0.702274 -0.454886,-1.95761 -0.0088,-0.171131 -0.0082,-0.323511 -0.0055,-0.463911 2.498337,-1.663007 4.181611,-4.033619 4.731705,-6.663821 0.558979,0.170265 1.719144,0.29417 2.156183,0.16669 0.227064,-0.06623 0.417148,-0.166219 0.552331,-0.393025 0.154916,-0.259918 0.197631,-0.439723 0.220207,-0.847218 0.007,-0.126391 -0.05779,-0.431373 -0.134136,-0.50822 -0.112278,-0.113037 -0.265979,-0.218436 -0.380078,-0.220476 -0.232917,-0.0042 -0.403415,-0.159944 -0.72195,-0.345563 -0.462179,-0.269326 -0.586689,-0.373144 -0.853613,-0.57564 -0.273998,-0.207863 -0.674149,-0.72611 -0.763646,-0.71485 -0.934634,-5.36704 -6.437629,-9.347667 -12.924008,-9.348665 -1.245936,-1.14e-4 -2.485483,0.148821 -3.680968,0.442277 z"
           transform="rotate(13.081569)" /><g
           id="g860"
           style="display:inline;opacity:1;stroke:#29601c;stroke-opacity:1"><path
             style="opacity:1;fill:none;fill-opacity:1;stroke:#29601c;stroke-width:0.5;stroke-linecap:round;stroke-linejoin:round;stroke-miterlimit:4;stroke-dasharray:none;stroke-opacity:1"
             d="m 39.642174,69.517435 c 0,0 0.662615,1.535803 -1.193243,1.502602 -1.74678,-0.03125 -2.604315,0.306679 -2.604315,0.306679 0,0 -0.442405,0.155792 -0.659578,0.31008 -0.931013,0.661427 -1.260725,1.347292 -1.467564,2.096932 -0.264288,0.957848 -0.259065,2.214864 0.470971,2.909233 0.730036,0.694369 2.270046,1.141484 3.685962,0.520066 1.091343,-0.47897 1.653224,-1.129003 2.077126,-1.988737 0.460535,-0.934031 0.43612,-2.464611 -0.473652,-3.239579 -0.8773,-0.747308 -2.55744,-0.80798 -2.55744,-0.80798"
             id="path859" /><path
             style="opacity:1;fill:none;fill-opacity:1;stroke:#29601c;stroke-width:0.5;stroke-linecap:round;stroke-linejoin:round;stroke-miterlimit:4;stroke-dasharray:none;stroke-opacity:1"
             d="m 34.935685,75.809093 c 0.912609,-0.138458 3.764246,-0.919729 4.135105,-3.162374"
             id="path860" /></g><g
           id="g862"><path
             style="opacity:1;fill:none;fill-opacity:1;stroke:#29601c;stroke-width:0.5;stroke-linecap:round;stroke-linejoin:round;stroke-miterlimit:4;stroke-dasharray:none;stroke-opacity:1"
             d="m 42.470601,68.942911 c 0,0 -0.225622,1.385777 1.546796,1.90035 1.370019,0.397747 1.856156,-1.414214 1.856156,-1.414214 l -0.265166,-1.06066 c -0.307466,-1.491241 0.458953,-0.914401 -1.546795,-1.988738 -1.719883,-0.92122 -1.590991,2.563262 -1.590991,2.563262 z"
             id="path861" /><path
             style="opacity:1;fill:none;fill-opacity:1;stroke:#29601c;stroke-width:0.5;stroke-linecap:round;stroke-linejoin:round;stroke-miterlimit:4;stroke-dasharray:none;stroke-opacity:1"
             d="m 43.796426,69.605824 c 0,0 1.325825,-1.325826 0.574524,-2.386486"
             id="path862" /></g><path
           style="display:inline;opacity:1;fill:#8ec64a;fill-opacity:1;stroke:#29601c;stroke-width:0.5;stroke-linecap:round;stroke-linejoin:round;stroke-miterlimit:4;stroke-dasharray:none;stroke-opacity:1"
           d="m 41.542523,68.412581 c 0.220971,0.132582 0.751301,1.237437 1.325826,-0.397748 0.574524,-1.635184 0.176776,-2.65165 0.176776,-2.65165 0,0 -0.08839,-0.53033 -1.988738,-0.795495"
           id="path863" /><path
           style="display:inline;opacity:1;fill:#8ec64a;fill-opacity:1;stroke:#29601c;stroke-width:0.3;stroke-linecap:round;stroke-linejoin:round;stroke-miterlimit:4;stroke-dasharray:none;stroke-opacity:1"
           d="m 46.669047,72.301668 c 0,0 1.736563,1.076721 0.265166,2.740039 -1.016466,1.149048 -0.558328,2.708524 -1.104854,3.579728 -1.018995,1.624357 -2.748082,3.327508 -5.974257,4.564944"
           id="path864" /><g
           id="g876"
           style="display:inline;fill:#9560ce;fill-opacity:1;stroke:none"><g
             id="g874"
             style="display:inline;opacity:1;fill:#9560ce;fill-opacity:1;stroke:none"
             transform="matrix(1.0743604,0,0,1.0138848,-3.5486773,-0.98157132)"><path
               style="opacity:1;fill:none;fill-opacity:1;stroke:#9c7ec3;stroke-width:0.3;stroke-linecap:round;stroke-linejoin:round;stroke-miterlimit:4;stroke-dasharray:none;stroke-opacity:1"
               d="m 49.364892,60.14827 c -0.130255,0.256212 -0.04023,0.285551 -0.08839,0.574525 -0.0097,0.05812 0.0097,0.118653 0,0.176776 -0.0054,0.03249 -0.03773,0.05609 -0.04419,0.08839 -0.03101,0.155064 0.01963,0.329091 0,0.486136 -0.04909,0.392736 -0.08868,0.837081 -0.04419,1.237437 0.0067,0.06037 0.03869,0.116287 0.04419,0.176776 0.01958,0.215435 0.0016,0.450069 0.04419,0.662913 0.01827,0.09136 0.06579,0.174777 0.08839,0.265165 0.02226,0.08904 0.05536,0.387047 0.08839,0.486136 0.02083,0.0625 0.06946,0.113674 0.08839,0.176776 0.02575,0.08583 0.01586,0.180156 0.04419,0.265166 0.0168,0.05039 0.06746,0.08376 0.08839,0.132582 0.02393,0.05583 0.02287,0.119905 0.04419,0.176777 0.07329,0.195446 0.191873,0.379078 0.265166,0.574524 0.02133,0.05687 0.01952,0.121273 0.04419,0.176777 0.197101,0.443479 0.510177,0.812818 0.795495,1.193242 0.01829,0.02439 0.250421,0.346182 0.265165,0.353554 0.08839,0.04419 0.04419,-0.117851 0.04419,-0.132583"
               id="path865" /><path
               style="opacity:1;fill:none;fill-opacity:1;stroke:#9c7ec3;stroke-width:0.342731;stroke-linecap:round;stroke-linejoin:round;stroke-miterlimit:4;stroke-dasharray:none;stroke-opacity:1"
               d="m 50.53971,60.78859 c -0.172394,0.181768 -0.06869,-0.106271 -0.105723,0.09645 -0.02386,0.130628 -0.08186,0.255168 -0.105723,0.385795 -0.01448,0.07928 0.01728,0.162308 0,0.241122 -0.07206,0.328699 -0.11498,0.769134 -0.05285,1.109156 0.059,0.323002 0.177092,0.666323 0.317162,0.964486 0.252818,0.538172 0.385149,1.105746 0.740044,1.591401 0.153913,0.210621 -0.02343,-0.0159 0.05286,0.192896 0.0201,0.05499 0.0608,0.103696 0.105723,0.144673 0.01246,0.01137 0.04498,-0.01438 0.05285,0 0.01577,0.02875 -0.01576,0.0677 0,0.09645 0.0051,0.0094 0.09425,0.03776 0.105723,0.04822 0.05111,0.04663 0.01148,0.144674 0.105723,0.144674"
               id="path866" /><path
               style="opacity:1;fill:none;fill-opacity:1;stroke:#9c7ec3;stroke-width:0.3;stroke-linecap:round;stroke-linejoin:round;stroke-miterlimit:4;stroke-dasharray:none;stroke-opacity:1"
               d="m 48.481008,59.927299 c -0.09262,0.501344 -0.341307,1.21561 -0.397747,1.723573 -0.03558,0.320264 0.02918,0.651234 0,0.972272 -0.02755,0.302997 -0.08258,0.620963 -0.04419,0.928078 0.03109,0.248721 0.116318,0.509466 0.176777,0.751301 0.04917,0.196686 0.06046,0.379008 0.08839,0.574524 0.03785,0.264941 0.182481,0.547443 0.265165,0.795495 0.114938,0.344815 0.165941,0.726018 0.309359,1.06066 0.05581,0.13023 0.138759,0.243938 0.220971,0.353554 0.06743,0.08991 0.07685,0.211825 0.132583,0.309359 0.08082,0.141441 0.197951,0.307514 0.265165,0.441942 0.02703,0.05407 0.08952,0.05609 0.132582,0.08839 0.317888,0.238416 -0.09327,-0.04907 0.132583,0.176777 0.02329,0.02329 0.0651,0.0209 0.08839,0.04419 0.02329,0.02329 0.0209,0.0651 0.04419,0.08839 0.01042,0.01042 0.03102,-0.0066 0.04419,0 0.119269,0.05963 -0.0015,0.01981 0.0442,0.08839 0.07145,0.107183 0.177966,0.133772 0.265165,0.22097 0.01042,0.01042 -0.0066,0.03102 0,0.0442 0.03211,0.06422 0.257603,0.220971 0.265165,0.220971"
               id="path867" /><path
               style="opacity:1;fill:none;fill-opacity:1;stroke:#9c7ec3;stroke-width:0.3;stroke-linecap:round;stroke-linejoin:round;stroke-miterlimit:4;stroke-dasharray:none;stroke-opacity:1"
               d="m 46.890018,60.45763 c -0.301206,0.941757 -0.353553,1.936078 -0.353553,2.916815 0,0.31484 -0.0073,0.61907 0.04419,0.928078 0.0097,0.05812 -0.01156,0.118995 0,0.176776 0.0419,0.209483 0.102454,0.407819 0.132583,0.618719 0,0.382305 -0.01863,-0.0048 0.04419,0.309359 0.02262,0.113087 -0.025,0.241043 0,0.353554 0.03032,0.136426 0.105174,0.260707 0.132582,0.397747 0.192011,0.960056 0.453336,1.494748 1.060661,2.253903 0.20163,0.252039 0.461667,0.45555 0.662912,0.707107 0.03318,0.04148 0.05083,0.09502 0.08839,0.132582 0.104829,0.104829 0.438712,0.3514 0.574525,0.441942 0.02741,0.01827 0.0651,0.0209 0.08839,0.04419 0.02329,0.02329 0.0209,0.0651 0.04419,0.08839 0.02083,0.02083 0.06755,-0.02083 0.08839,0 0.01042,0.01042 -0.01042,0.03378 0,0.04419 0.02083,0.02083 0.06204,-0.01318 0.08839,0 0.05461,0.02731 0.04419,0.08434 0.04419,0"
               id="path868" /><path
               style="opacity:1;fill:none;fill-opacity:1;stroke:#9c7ec3;stroke-width:0.333731;stroke-linecap:round;stroke-linejoin:round;stroke-miterlimit:4;stroke-dasharray:none;stroke-opacity:1"
               d="m 45.315894,65.159078 c 0.352646,0.847389 0.671033,1.748645 1.199095,2.515606 0.140527,0.204101 -0.08575,-0.262801 0.149887,0.193508 0.09329,0.180669 0.182156,0.361318 0.299774,0.532148 0.111741,0.162292 0.278826,0.279343 0.399698,0.435393 0.05739,0.07407 0.09251,0.167807 0.149888,0.241885 0.07066,0.09122 0.176245,0.152847 0.249811,0.241885 0.02327,0.02815 0.02363,0.07126 0.04996,0.09676 0.01178,0.01141 0.03819,-0.01141 0.04996,0 0.02823,0.02733 0.06271,0.157472 0.09993,0.193509 0.05267,0.05099 0.147184,0.04576 0.19985,0.09676 0.01178,0.01141 -0.01178,0.03698 0,0.04838 0.02633,0.02549 0.0736,0.02288 0.09993,0.04837 0.103375,0.100094 -0.157968,-0.0039 0.04997,0.09676 0.0149,0.0072 0.03819,-0.01141 0.04996,0 0.01178,0.01141 -0.01178,0.03698 0,0.04837 0.01178,0.01141 0.03507,-0.0072 0.04996,0 0.03477,0.01684 0.36847,0.211647 0.399698,0.241885"
               id="path869" /><path
               style="opacity:1;fill:none;fill-opacity:1;stroke:#9c7ec3;stroke-width:0.3;stroke-linecap:round;stroke-linejoin:round;stroke-miterlimit:4;stroke-dasharray:none;stroke-opacity:1"
               d="m 50.160387,60.325047 c -0.230431,0.06601 -0.474665,-0.04894 -0.707107,2e-6 -0.237548,0.05001 -0.737227,0.274968 -0.928077,0.353554 -0.252066,0.103791 -0.858569,0.324462 -1.06066,0.486135 -0.152813,0.122251 -0.285588,0.280483 -0.441942,0.397748 -0.02635,0.01976 -0.0651,0.0209 -0.08839,0.04419 -0.02329,0.02329 -0.02311,0.06308 -0.0442,0.08839 -0.08002,0.09603 -0.187078,0.167556 -0.265165,0.265165 -0.08882,0.111031 -0.132146,0.242522 -0.220971,0.353553 -0.107542,0.134428 -0.258666,0.255417 -0.353553,0.397748 -0.09812,0.147182 -0.209248,0.362578 -0.265165,0.53033 -0.01712,0.05137 -0.02079,0.129976 -0.04419,0.176776 -0.0093,0.01863 -0.03761,0.02443 -0.04419,0.04419 -0.06967,0.209 -0.07834,0.445927 -0.132583,0.662913 -0.03797,0.151879 -0.13443,0.293728 -0.176777,0.441942 -0.01214,0.04249 0.01214,0.09009 0,0.132582 -0.05009,0.175327 -0.08839,0.178899 -0.08839,0.353554"
               id="path870" /><path
               style="opacity:1;fill:none;fill-opacity:1;stroke:#9c7ec3;stroke-width:0.31217;stroke-linecap:round;stroke-linejoin:round;stroke-miterlimit:4;stroke-dasharray:none;stroke-opacity:1"
               d="m 50.55205,61.170821 c -0.699318,0.2207 0.01037,-0.226116 -0.803453,0.313226 -0.250593,0.166078 -0.510205,0.320072 -0.756192,0.492212 -0.293681,0.205514 -0.564965,0.454763 -0.850715,0.671196 -0.301263,0.228184 -0.641321,0.438234 -0.897977,0.715944 -0.215553,0.233234 -0.334138,0.514489 -0.519882,0.76069 -0.03885,0.0515 -0.09899,0.08563 -0.141786,0.134239 -0.183746,0.208761 -0.289901,0.446766 -0.425357,0.671198 -0.439837,0.728747 0.255005,-0.617107 -0.330835,0.492211 -0.05997,0.113555 -0.08106,0.242991 -0.141785,0.357972 -0.07249,0.137254 -0.08905,0.297667 -0.141786,0.447465 -0.03155,0.08961 -0.114004,0.144823 -0.141786,0.223732 -0.01495,0.04245 0.02113,0.09421 0,0.134239 -0.05739,0.10869 -0.02041,0.172893 -0.04726,0.223733 -0.0099,0.01886 -0.04022,0.02473 -0.04727,0.04474 -0.02357,0.06695 -0.02004,0.492211 0.04727,0.492211"
               id="path871" /><path
               style="opacity:1;fill:none;fill-opacity:1;stroke:#9c7ec3;stroke-width:0.307043;stroke-linecap:round;stroke-linejoin:round;stroke-miterlimit:4;stroke-dasharray:none;stroke-opacity:1"
               d="m 51.438496,61.654394 c -0.493546,0.344539 -0.948571,0.74467 -1.390202,1.147897 -0.220805,0.201604 -0.427035,0.417414 -0.648761,0.618098 -0.08747,0.07917 -0.197335,0.135315 -0.278041,0.220749 -0.06025,0.06379 -0.08737,0.15045 -0.13902,0.22075 -0.418973,0.570244 -0.891634,1.097638 -1.297523,1.677695 -0.231394,0.330688 -0.03939,0.0362 -0.278041,0.309049 -0.249706,0.285485 -0.416903,0.632615 -0.64876,0.927148 -0.02621,0.0333 -0.0702,0.05261 -0.09268,0.0883 -0.02513,0.03991 -0.02121,0.09255 -0.04634,0.132449 -0.02248,0.03569 -0.06952,0.05301 -0.09268,0.0883 -0.05647,0.08608 -0.187924,0.316377 -0.231701,0.441498 -0.01787,0.05108 0.02489,0.129158 0,0.1766 -0.0098,0.01861 -0.04104,0.02396 -0.04633,0.04415 -0.01874,0.07139 0.02442,0.150942 0,0.220749 -0.02927,0.08365 -0.04634,0.06944 -0.04634,0.1766 0,0.07799 -0.04237,0.529798 0.04634,0.529798"
               id="path872" /><path
               style="opacity:1;fill:none;fill-opacity:1;stroke:#9c7ec3;stroke-width:0.318004;stroke-linecap:round;stroke-linejoin:round;stroke-miterlimit:4;stroke-dasharray:none;stroke-opacity:1"
               d="m 51.830763,62.499563 c -0.404515,0.321625 -0.565422,0.426474 -0.933742,0.848465 -0.211818,0.242684 -0.395702,0.504484 -0.589731,0.759153 -0.31552,0.414128 -0.643228,0.821398 -0.933741,1.250369 -0.365066,0.539054 -0.652161,1.121235 -0.933741,1.69693 -0.123036,0.251547 -0.231262,0.503025 -0.34401,0.759152 -0.109844,0.249542 -0.238589,0.45881 -0.294865,0.714498 0.0956,0.124067 -0.08052,0.114042 -0.09829,0.178624 -0.01192,0.04332 0.01192,0.09065 0,0.133968 -0.0057,0.02042 -0.03879,0.02583 -0.04914,0.04466 -0.05741,0.104333 -0.04914,0.161435 -0.04914,0.267936 0,0.05171 -0.0786,0.464456 -0.04914,0.491216 0.02316,0.02105 -0.229335,0.178624 -0.196575,0.178624"
               id="path873" /><path
               style="opacity:1;fill:none;fill-opacity:1;stroke:#9c7ec3;stroke-width:0.3;stroke-linecap:round;stroke-linejoin:round;stroke-miterlimit:4;stroke-dasharray:none;stroke-opacity:1"
               d="m 51.751377,64.081552 c -0.117851,0.220971 -0.231386,0.444298 -0.353553,0.662913 -1.463467,2.527806 0.369283,-0.692624 -0.839689,1.59099 -0.135944,0.256783 -0.307544,0.493705 -0.441942,0.751301 -0.116223,0.22276 -0.179122,0.514682 -0.265165,0.751301 -0.164466,0.452281 -0.01005,0.0087 -0.176777,0.397747 -0.07528,0.175663 -0.08651,0.346062 -0.132582,0.53033 -0.01598,0.06391 -0.06755,0.114277 -0.08839,0.176777 -0.02743,0.08231 -0.01777,0.185901 -0.04419,0.265165 -0.0066,0.01976 -0.03761,0.02443 -0.04419,0.04419 -0.01397,0.04193 0.01976,0.09305 0,0.132583 -0.0093,0.01863 -0.03488,0.02556 -0.04419,0.04419 -0.01334,0.02668 0.02043,0.112153 0,0.132582 -0.01042,0.01042 -0.03378,-0.01042 -0.04419,0 -0.02947,0.02947 0.02947,0.05892 0,0.08839 -0.01042,0.01042 -0.03378,-0.01042 -0.04419,0 -0.02083,0.02083 0.01318,0.06204 0,0.08839 -0.03437,0.06873 -0.132583,0.140673 -0.132583,0.220971"
               id="path874" /></g><path
             id="path875"
             style="display:inline;opacity:1;fill:#8940e6;fill-opacity:1;stroke:none;stroke-width:0.3;stroke-linecap:round;stroke-linejoin:round;stroke-miterlimit:4;stroke-dasharray:none;stroke-opacity:1"
             d="m 48.451172,59.25 c -1.324764,0.04535 -2.715161,0.726308 -3.460938,2.267578 -2.273447,4.698459 0.529297,7.691406 0.529297,7.691406 0,0 0.576036,1.200702 1.857422,1.589844 1.281387,0.389142 3.082,-0.250537 3.84375,-1.458984 2.710829,-4.300482 0.949076,-8.045418 -0.132812,-9.146485 C 50.471073,59.565607 49.481544,59.214727 48.451172,59.25 Z m -0.113281,0.554688 c 0.849454,-0.02426 1.687574,0.347216 2.21875,0.943359 0.869561,0.975916 2.77237,3.678984 0.107421,8.109375 -0.635925,1.057206 -1.884155,1.415223 -2.914062,1.070312 -1.029906,-0.344911 -1.757812,-1.630859 -1.757812,-1.630859 0,0 -1.987427,-2.474257 -0.160157,-6.638672 0.566113,-1.29019 1.543145,-1.826023 2.50586,-1.853515 z" /><path
             id="path876"
             style="display:inline;opacity:1;fill:#8940e6;fill-opacity:1;stroke:none;stroke-width:0.291948;stroke-linecap:round;stroke-linejoin:round;stroke-miterlimit:4;stroke-dasharray:none;stroke-opacity:1"
             d="m 46.266716,69.478507 c -0.154599,0.0038 -0.275609,0.03445 -0.275609,0.03445 l -2.780635,5.505901 c -0.0122,-0.0021 -0.03965,-0.0077 -0.03965,-0.0077 -1.110578,0.952676 -0.426629,2.166382 -0.426629,2.166382 0,0 1.06909,1.68741 1.795237,-0.08804 0.05195,-0.126992 0.08837,-0.24552 0.113264,-0.357875 0.257659,-0.727537 1.836531,-5.189596 2.191662,-6.309682 0.264296,-0.833593 -0.237527,-0.951627 -0.577647,-0.943487 z" /></g><path
           style="opacity:1;fill:#8ec64a;fill-opacity:1;stroke:#29601c;stroke-width:0.3;stroke-linecap:round;stroke-linejoin:round;stroke-miterlimit:4;stroke-dasharray:none;stroke-opacity:1"
           d="m 41.7193,75.92559 c 0,0 1.59099,-0.132582 1.237437,1.679379"
           id="path877" /><path
           style="opacity:1;fill:#8ec64a;fill-opacity:1;stroke:none;stroke-width:0.3;stroke-linecap:round;stroke-linejoin:round;stroke-miterlimit:4;stroke-dasharray:none;stroke-opacity:1"
           d="m 45.730247,69.803127 c 0,0 1.714655,0.403322 1.15755,1.916894 -0.266505,0.724055 -0.630763,0.914872 -1.362896,1.496781 -0.732133,0.581909 -2.166435,1.385644 -2.994941,2.708329"
           id="path878" /><path
           id="path879"
           style="display:inline;opacity:1;fill:#7cb237;fill-opacity:1;stroke:none;stroke-width:0.3;stroke-linecap:round;stroke-linejoin:round;stroke-miterlimit:4;stroke-dasharray:none;stroke-opacity:1"
           d="m 22.847656,66.46875 c -0.05893,0.04419 -0.118264,0.0868 -0.175781,0.132812 -0.132828,0.106262 -0.05366,0.37839 0.175781,0.263672 0.02668,-0.01334 0.112384,0.02043 0.132813,0 0.01042,-0.01042 -0.01042,-0.03256 0,-0.04297 0.01042,-0.01042 0.03174,0.0066 0.04492,0 0.07252,-0.03626 0.04492,-0.154136 0.04492,-0.220704 0,-0.123524 0.01199,-0.03895 -0.222656,-0.132812 z m 1.865235,1.21875 c -0.126347,0.0042 -0.240518,0.02358 -0.31836,0.0625 -0.03953,0.01977 -0.09089,-0.01398 -0.132812,0 -0.109151,0.03638 -0.173828,0.148828 -0.263672,0.220703 0.097,0.445117 -0.159963,0.07207 -0.220703,0.132813 -0.09957,0.09957 -0.251577,0.426536 -0.177735,0.574218 0.01863,0.03727 0.06925,0.05062 0.08789,0.08789 0.102578,0.205155 0.3383,0.314726 0.53125,0.443359 0.04584,0.03056 0.277046,0.210188 0.308594,0.220704 0.02795,0.0093 0.06154,-0.01318 0.08789,0 0.01318,0.0066 -0.01398,0.03832 0,0.04297 0.04193,0.01398 0.08922,-0.0073 0.132813,0 0.387943,0.06466 -0.06782,0.01771 0.220703,0.08984 0.104626,0.02616 0.17334,-0.02185 0.265625,-0.04492 0.442688,-0.110672 0.69855,-0.460887 0.839844,-0.884766 0.08404,-0.252123 -0.130313,-0.483476 -0.308594,-0.617187 -0.0722,-0.05415 -0.187798,-0.196714 -0.265625,-0.222656 -0.167995,-0.056 -0.509146,-0.114684 -0.787109,-0.105469 z m -3.035157,0.912109 c -0.197685,0.01131 -0.368673,0.135042 -0.507812,0.34375 -0.07723,0.115847 -0.01797,0.07696 -0.08984,0.220703 -0.06129,0.122567 -0.12591,0.289314 -0.08789,0.441407 0.03697,0.147886 0.107141,0.372766 0.220703,0.486328 0.02329,0.02329 0.0646,0.02163 0.08789,0.04492 0.02653,0.02653 0.03761,0.09799 0.08984,0.132812 0.13997,0.09331 0.72251,0.303752 0.882813,0.263672 0.03196,-0.008 0.05593,-0.03497 0.08789,-0.04297 0.04287,-0.01072 0.101563,0.03125 0.132813,0 0.01042,-0.01041 -0.0066,-0.03174 0,-0.04492 0.02574,-0.05148 0.0641,-0.08133 0.08984,-0.132812 0.03519,-0.07046 -0.03309,-0.244372 0.04297,-0.396484 0.01997,-0.03993 -0.03687,-0.114423 -0.04297,-0.132813 -0.04059,-0.121762 0.03631,-0.228553 -0.04492,-0.353515 -0.16706,-0.257017 -0.354474,-0.50152 -0.53125,-0.751954 -0.117415,-0.05871 -0.226528,-0.08405 -0.330078,-0.07813 z m 11.128907,0.248047 c -0.03422,7.19e-4 -0.06854,0.0039 -0.103516,0.0078 -0.250877,0.02787 -0.241245,0.04084 -0.224609,0.04492 -0.0181,-2.13e-4 -0.06517,-0.002 -0.171875,-0.002 l -0.929688,0.751953 c -0.324091,0.176776 -0.709662,0.268256 -0.970703,0.529297 -0.151669,0.151668 -0.177734,0.404647 -0.177734,0.61914 0,0.646787 0.741676,0.828414 1.238281,0.927734 0.190726,0.03815 0.425691,0.08984 0.619141,0.08984 0.501939,0 1.528308,-0.255112 1.855468,-0.664062 0.140446,-0.175557 0.160639,-0.363997 0.220703,-0.574219 0.19576,-0.685161 0.187836,-1.030022 -0.441406,-1.501953 -0.05202,-0.03902 -0.167226,-0.07201 -0.220703,-0.08984 -0.229423,-0.07648 -0.453798,-0.143706 -0.693359,-0.138672 z m -5.550782,2.38086 c -0.08201,6.01e-4 -0.17124,0.074 -0.253906,0.101562 -0.10312,0.08839 -0.22375,0.157617 -0.308594,0.263672 -0.09144,0.114294 -0.04142,0.333785 0.08789,0.398438 0.0527,0.02635 0.120568,-0.01429 0.177734,0 0.274441,0.06861 0.267907,0.06429 0.486328,-0.04492 0.02946,-0.01473 0.06731,-0.01725 0.08789,-0.04297 0.06018,-0.07523 0.143569,-0.330047 0.08789,-0.441406 -0.09196,-0.183926 0.0036,0.04652 -0.08789,-0.04492 -0.02529,-0.02529 -0.02521,-0.11192 -0.08789,-0.132813 -0.201184,0 -0.0027,0.0201 -0.132812,-0.04492 -0.01798,-0.009 -0.03772,-0.01186 -0.05664,-0.01172 z" /><path
           style="opacity:1;fill:none;fill-opacity:1;stroke:#29601c;stroke-width:0.3;stroke-linecap:round;stroke-linejoin:round;stroke-miterlimit:4;stroke-dasharray:none;stroke-opacity:1"
           d="m 24.651982,80.175814 c -1.108312,-1.028722 -2.36239,-3.121165 -2.49014,-3.386002"
           id="path880" /><path
           style="opacity:1;fill:none;fill-opacity:1;stroke:#29601c;stroke-width:0.3;stroke-linecap:round;stroke-linejoin:round;stroke-miterlimit:4;stroke-dasharray:none;stroke-opacity:1"
           d="m 40.481863,81.891804 c -0.535606,0.177508 -0.583611,0.996895 -0.783771,2.149891"
           id="path881" /><path
           style="opacity:1;fill:none;fill-opacity:1;stroke:#29601c;stroke-width:0.3;stroke-linecap:round;stroke-linejoin:round;stroke-miterlimit:4;stroke-dasharray:none;stroke-opacity:1"
           d="m 42.77996,72.655222 c 0.259226,-0.452833 0.229233,0.101502 0.176777,0.08839 -0.06391,-0.01598 -0.117851,-0.05893 -0.176777,-0.08839 z"
           id="path882" /><path
           style="opacity:1;fill:none;fill-opacity:1;stroke:#29601c;stroke-width:0.3;stroke-linecap:round;stroke-linejoin:round;stroke-miterlimit:4;stroke-dasharray:none;stroke-opacity:1"
           d="m 43.663844,71.771338 c 0.242535,0.06063 0.242535,0.06063 0,0 z"
           id="path883" /></g><g
         id="g894"
         style="display:inline"><g
           id="g886"><path
             style="opacity:1;fill:#c2b722;fill-opacity:1;stroke:none;stroke-width:0.3;stroke-linecap:round;stroke-linejoin:round;stroke-miterlimit:4;stroke-dasharray:none;stroke-opacity:1"
             d="m 42.375,64 c 0.0625,-0.125 0.143306,-0.242418 0.1875,-0.375 0.01098,-0.03293 -0.03248,-1 -0.0625,-1 -0.02083,0 0,0.04167 0,0.0625 -0.0625,-0.8125 -0.123365,-1.625128 -0.1875,-2.4375 -0.0016,-0.02077 0.02083,0.0625 0,0.0625 -0.04659,0 -0.01591,-0.125 -0.0625,-0.125 -0.04167,0 0.01863,0.08773 0,0.125 -0.178126,0.356252 -0.191496,0.820491 -0.375,1.1875 -0.04358,0.08717 -0.01892,0.225331 -0.0625,0.3125 -0.02083,0.04167 -0.0625,0.171585 -0.0625,0.125 0,-0.08827 0.133773,-0.669954 0.125,-0.6875 -0.08413,-0.168264 -0.110514,-0.370036 -0.1875,-0.5625 -0.156467,-0.391167 0.02299,0.159486 -0.125,-0.0625 C 41.52596,60.57018 41.54116,60.488944 41.5,60.4375 41.43723,60.35904 41.232807,60.295307 41.1875,60.25 41.15456,60.21706 41.15794,60.15794 41.125,60.125 41.021834,60.021834 40.856856,59.981855 40.75,59.875 40.5964,59.7214 40.365903,59.681435 40.1875,59.5625 40.15555,59.5412 40.058282,59.379218 40,59.4375 c -0.05579,0.05579 0.314245,0.283867 0.375,0.375 0.107594,0.161391 0.233335,0.34167 0.3125,0.5 0.0344,0.0688 0.125,0.217902 0.125,0.125 0,-0.02083 -0.04387,0.0093 -0.0625,0 C 40.597919,60.36146 40.454523,60.219682 40.3125,60.125 40.148667,60.015778 40.203278,60.101639 40,60 39.91505,59.95753 39.834948,59.854974 39.75,59.8125 39.69527,59.78513 39.316117,59.75362 39.3125,59.75 c -0.01473,-0.01473 0.01863,-0.05318 0,-0.0625 -0.04658,-0.02329 -0.466267,-0.0625 -0.5625,-0.0625 -0.117762,0 -0.558133,0.04241 -0.5625,0.0625 -0.102652,0.472196 -0.278756,0.962969 -0.1875,1.4375 0.270833,0.604167 0.541667,1.208333 0.8125,1.8125 0.04167,0.04167 0.09865,0.07229 0.125,0.125 0.03842,0.07683 0.02866,0.171047 0.0625,0.25 0.02959,0.06904 0.09541,0.118458 0.125,0.1875 0.12015,0.280351 0.0034,0.194251 0.125,0.4375 0.03359,0.06718 0.09141,0.120314 0.125,0.1875 0.122852,0.245703 0.175161,0.550563 0.25,0.8125 0.09541,0.333946 0.234046,0.655591 0.375,0.9375 0.02184,0.04367 0.05958,0.372076 0.0625,0.375 0.01473,0.01473 0.04777,-0.01473 0.0625,0 0.01473,0.01473 -0.0093,0.04387 0,0.0625 0.05383,0.10766 0.279223,0.0625 0.375,0.0625 0.357905,0 0.52518,-0.140108 0.8125,-0.3125 0.477639,-0.286584 0.640015,-0.53003 0.875,-1 0.06667,-0.133333 0.05833,0.0083 0.125,-0.125 0.03842,-0.07683 0.02408,-0.173171 0.0625,-0.25 0.01111,-0.02222 0.113889,-0.102778 0.125,-0.125 C 42.57822,64.406053 42.41929,64.110724 42.375,64 Z"
             id="path884" /><path
             style="opacity:1;fill:#b8af2c;fill-opacity:1;stroke:none;stroke-width:0.293607;stroke-linecap:round;stroke-linejoin:round;stroke-miterlimit:4;stroke-dasharray:none;stroke-opacity:1"
             d="m 31.62432,61.163103 c -0.404827,-0.176322 -0.808738,-0.406791 -1.22534,-0.529367 -0.194392,-0.0572 -0.515068,-0.120703 -0.716931,-0.126516 -0.06238,-0.0018 -0.122716,0.03176 -0.18509,0.02996 -0.154198,-0.0044 -0.298704,-0.102712 -0.460577,-0.107372 -0.120528,-0.0035 -0.261603,0.01851 -0.379748,8.25e-4 -0.100859,-0.0151 -0.225844,-0.06532 -0.327617,-0.06825 -0.334002,-0.0096 -0.661728,0.04647 -0.996716,0.100701 -0.06918,0.0112 -0.403379,0.03414 -0.493575,0.0799 -0.02617,0.01325 -0.02501,0.05776 -0.05213,0.06909 -0.444239,0.185478 0.0247,-0.115767 -0.298916,0.109038 -0.134783,0.09363 -0.216412,0.193191 -0.331916,0.296305 -0.04852,0.04332 -0.13667,0.03755 -0.175523,0.08906 -0.02087,0.02765 -0.02126,0.0805 -0.104261,0.138165 -0.01697,0.01176 -0.04113,0.0067 -0.0617,0.01 -0.01737,0.02302 -0.02813,0.05242 -0.05213,0.06909 -0.01697,0.01176 -0.06489,-0.0097 -0.0617,0.01 0.0032,0.01969 0.04188,-0.0158 0.0617,-0.01 0.09069,0.02668 0.277916,0.06991 0.379748,-8.25e-4 0.02399,-0.01667 0.02305,-0.06438 0.05213,-0.06909 0.04599,-0.0074 0.08708,0.03225 0.132961,0.03912 0.115847,0.01733 0.253207,-0.06867 0.370181,-0.05992 0.111743,0.0083 0.21587,0.05988 0.327618,0.06825 0.04145,0.0031 0.08235,-0.02612 0.123393,-0.01997 0.05803,0.0087 0.08647,0.08173 0.142526,0.09821 0.03964,0.01166 0.0898,-0.04313 0.123394,-0.01998 0.0168,0.01158 -0.0072,0.04752 0.0096,0.0591 0.0168,0.01157 0.04188,-0.0158 0.0617,-0.01 0.128767,0.03789 0.210627,0.168653 0.29462,0.255529 0.07192,0.07439 0.149696,0.05066 0.204223,0.08823 0.05384,0.03709 0.08396,0.16834 0.0904,0.167298 0.02056,-0.0033 0.0072,-0.04752 -0.0096,-0.0591 -0.03563,-0.02455 -0.14946,0.05451 -0.185091,0.02996 -0.01679,-0.01158 0.0072,-0.04753 -0.0096,-0.0591 -0.03999,-0.02755 -0.495406,0.03597 -0.564839,0.03079 -0.545029,-0.0407 -1.225854,0.09667 -1.727511,0.279652 -0.200029,0.07297 -0.687889,0.335045 -0.877621,0.445288 -0.02533,0.01473 -0.02501,0.05776 -0.05213,0.06909 -0.05753,0.02402 -0.126468,0.0086 -0.185091,0.02996 -0.118039,0.04306 -0.228642,0.179959 -0.341481,0.237212 -0.186853,0.09481 -0.169376,0.152683 -0.270219,0.286319 -0.133566,0.177 -0.391906,0.304769 -0.559569,0.454447 -0.05866,0.05238 -0.184423,0.203752 -0.208522,0.27633 -0.0063,0.01911 0.02185,0.04281 0.0096,0.0591 -0.01229,0.01628 -0.07398,0.02627 -0.0617,0.01 0.109836,-0.145554 0.324776,-0.159863 0.464876,-0.257186 0.167353,-0.116257 0.336005,-0.298381 0.507439,-0.385363 0.421362,-0.213792 1.171412,-0.364968 1.656247,-0.328765 0.06019,0.0045 0.507485,0.006 0.522274,0.09738 0.0064,0.03941 -0.08946,-0.0036 -0.123394,0.01998 -0.08217,0.05709 -0.145483,0.101057 -0.227654,0.158143 -0.03394,0.02358 -0.08946,-0.0036 -0.123394,0.01998 -0.0532,0.03695 -0.174845,0.136092 -0.227654,0.158139 -0.05753,0.02402 -0.129583,0.0018 -0.185091,0.02996 -0.01848,0.0095 0.02653,0.04732 0.0096,0.0591 -0.03394,0.02358 -0.08639,0.0012 -0.123393,0.01997 -0.705829,0.490306 0.06299,0.0052 -0.351048,0.178116 -0.117428,-0.01751 -0.09925,0.114309 -0.165958,0.148154 -0.108985,0.0553 -0.201072,0.04106 -0.298917,0.109039 -0.04705,0.03266 -0.319974,0.260345 -0.331915,0.296306 -0.0063,0.01911 0.02185,0.04281 0.0096,0.0591 -0.01229,0.01628 -0.04941,-0.0063 -0.0617,0.01 -0.01738,0.02302 -0.01563,0.164245 -0.033,0.187273 -0.02087,0.02765 -0.07322,0.0447 -0.104261,0.138166 -0.02044,0.06157 0.0036,0.28235 -0.01386,0.305461 -0.01229,0.01628 -0.04941,-0.0063 -0.0617,0.01 -0.01057,0.014 0.03339,0.285521 0.04783,0.295475 0.08399,0.05786 0.208429,-0.0212 0.308484,-0.04994 0.254717,-0.07315 0.516317,-0.19223 0.792492,-0.188939 0.409812,0.0049 0.803862,0.05658 1.210505,0.04662 0.94666,-0.0232 1.845755,-0.298793 2.776358,-0.44944 0.564736,-0.09142 1.184968,-0.03833 1.737078,-0.220551 0.06249,-0.02061 0.113031,-0.06844 0.175523,-0.08906 0.0968,-0.04061 0.209676,-0.01733 0.308484,-0.04994 0.257644,-0.08504 0.530155,-0.230463 0.763793,-0.36622 0.0801,-0.04654 0.141888,-0.122326 0.227655,-0.15814 0.03835,-0.01603 0.08757,8.28e-4 0.123394,-0.01998 0.18638,-0.108305 0.479775,-0.420476 0.602133,-0.582623 0.350812,-0.464891 0.282301,-1.092214 0.306546,-1.626358"
             id="path885" /><path
             style="opacity:1;fill:#d5d02e;fill-opacity:1;stroke:none;stroke-width:0.3;stroke-linecap:round;stroke-linejoin:round;stroke-miterlimit:4;stroke-dasharray:none;stroke-opacity:1"
             d="m 27.9375,62.375 c -1.087537,0.140778 -2.194493,0.467657 -2.875,1.375 -0.05836,0.07781 -0.139847,0.598416 -0.125,0.6875 0.01083,0.06498 0.05318,0.122281 0.0625,0.1875 0.01768,0.123744 -0.02452,0.252427 0,0.375 0.02584,0.129203 0.09916,0.245797 0.125,0.375 0.0082,0.04086 -0.01863,0.08773 0,0.125 0.02635,0.0527 0.09865,0.07229 0.125,0.125 0.01863,0.03727 -0.01011,0.08458 0,0.125 0.02528,0.101103 0.124897,0.291529 0.1875,0.375 0.394122,0.525496 0.895957,1.072978 1.5,1.375 0.154294,0.07715 0.345706,0.110353 0.5,0.1875 0.06718,0.03359 0.118458,0.09541 0.1875,0.125 0.129255,0.0554 0.308245,0.0696 0.4375,0.125 0.542281,0.232406 1.17158,0.354868 1.75,0.4375 0.164992,0.02357 0.33462,-0.02067 0.5,0 0.230937,0.02887 0.456563,0.09613 0.6875,0.125 0.144707,0.01809 0.293651,-0.02397 0.4375,0 0.307528,0.05125 0.61544,0.102757 0.9375,0.0625 0.374367,-0.0468 0.751649,-0.150165 1.125,-0.1875 0.12438,-0.01244 0.25062,0.01244 0.375,0 0.56551,-0.05655 1.124957,-0.14772 1.6875,-0.25 0.185371,-0.0337 0.550693,-0.06521 0.75,-0.125 0.38326,-0.114978 0.753309,-0.298116 1.125,-0.4375 0.812547,-0.304705 -0.422336,0.250205 0.5625,-0.1875 0.986157,-0.438292 -0.366864,0.152182 0.4375,-0.25 0.05893,-0.02946 0.131008,-0.0286 0.1875,-0.0625 0.05053,-0.03032 0.07786,-0.08965 0.125,-0.125 0.142135,-0.106602 0.289698,-0.161319 0.4375,-0.25 0.173061,-0.103837 0.31078,-0.28039 0.5,-0.375 0.246116,-0.123058 0.467629,-0.272597 0.6875,-0.4375 0.236017,-0.177013 0.450828,-0.384996 0.6875,-0.5625 0.01667,-0.0125 0.04777,0.01473 0.0625,0 0.268271,-0.268271 0.375,-1.135075 0.375,-1.5 0,-0.364027 0.0068,-0.715888 -0.0625,-1.0625 -0.113067,-0.565332 -0.0059,0.169764 -0.125,-0.1875 -0.01318,-0.03953 0,-0.08333 0,-0.125 C 41.29167,62.375 41.27447,62.311169 41.25,62.25 c -0.0279,-0.06974 -0.101246,-0.116239 -0.125,-0.1875 -0.01318,-0.03953 0.01011,-0.08458 0,-0.125 -0.01214,-0.04855 -0.172065,-0.351847 -0.1875,-0.375 -0.01156,-0.01734 -0.04517,0.01156 -0.0625,0 -0.04903,-0.03269 -0.08333,-0.08333 -0.125,-0.125 -0.163263,-0.163263 -0.312188,-0.281094 -0.5,-0.375 -0.05271,-0.02635 -0.07229,-0.09865 -0.125,-0.125 -0.03727,-0.01863 -0.08773,0.01863 -0.125,0 -0.194717,-0.09736 -0.435439,-0.15522 -0.625,-0.25 -0.137446,-0.06872 -0.469915,0 -0.625,0"
             id="path886" /></g><path
           style="opacity:1;fill:#e6e140;fill-opacity:1;stroke:none;stroke-width:0.3;stroke-linecap:round;stroke-linejoin:round;stroke-miterlimit:4;stroke-dasharray:none;stroke-opacity:1"
           d="m 28.25,62.125 c -0.242065,-0.530905 -0.328262,-1.124452 -0.1875,-1.6875 -0.106223,-0.169172 0.09554,-0.161612 0.125,-0.25 0.01318,-0.03953 -0.01011,-0.08458 0,-0.125 0.0062,-0.0249 0.177292,-0.359688 0.1875,-0.375 0.03269,-0.04903 0.09468,-0.07447 0.125,-0.125 0.0339,-0.05649 0.0286,-0.131008 0.0625,-0.1875 0.1875,-0.3125 0.0625,0 0.1875,-0.1875 0.08028,-0.120418 0.119392,-0.225428 0.25,-0.3125 0.01733,-0.01156 0.04777,0.01473 0.0625,0 0.07612,-0.07612 0.02928,-0.139638 0.125,-0.1875 0.162905,-0.08145 0.330214,-0.165107 0.5,-0.25 0.148909,-0.07445 0.275697,-0.196066 0.4375,-0.25 0.26545,-0.08848 0.672735,0.02387 0.875,0.125 0.09504,0.04752 1.014339,0.03689 1.125,0 0.02795,-0.0093 0.03615,-0.04932 0.0625,-0.0625 0.05,-0.025 0.1375,0.025 0.1875,0 0.215144,-0.107572 0.505122,-0.152049 0.75,-0.25 0.119503,-0.0478 0.249278,-0.162356 0.375,-0.1875 0.06129,-0.01226 0.126866,0.01516 0.1875,0 0.02858,-0.0071 0.03455,-0.05318 0.0625,-0.0625 0.03953,-0.01318 0.08458,0.01011 0.125,0 0.171452,-0.04286 0.334766,-0.194922 0.5,-0.25 0.117827,-0.03928 0.36839,-0.09868 0.5,-0.125 0.06848,-0.0137 1.426565,-0.06797 1.4375,-0.0625 0.134544,0.06727 0.293168,0.115334 0.4375,0.1875 0.07909,0.03955 0.393107,0.07155 0.5,0.125 0.08371,0.04185 0.0866,0.149102 0.125,0.1875 0.04092,0.04092 0.144434,0.03887 0.1875,0.125 0.02575,0.05149 0.02535,0.08785 0.0625,0.125 0.01473,0.01473 0.04777,-0.01473 0.0625,0 0.02946,0.02946 -0.01863,0.08773 0,0.125 0.04558,0.09115 0.09998,0.09998 0.125,0.125 0.04798,0.04798 0.03588,0.196755 0.0625,0.25 0.0093,0.01863 0.04777,-0.01473 0.0625,0 0.03294,0.03294 0.04167,0.08333 0.0625,0.125 0.01863,0.03727 -0.02946,0.09554 0,0.125 0.01473,0.01473 0.04777,-0.01473 0.0625,0 0.01473,0.01473 -0.0066,0.04274 0,0.0625 0.05289,0.158661 0.199181,0.285043 0.25,0.4375 0.01318,0.03953 -0.01318,0.08547 0,0.125 0.04073,0.122201 0.191472,0.257945 0.25,0.375 0.01887,0.03774 -0.02889,0.158608 0,0.1875 0.01473,0.01473 0.05318,-0.01863 0.0625,0 0.04514,0.09027 0.01736,0.284726 0.0625,0.375 0.0093,0.01863 0.04777,-0.01473 0.0625,0 0.02889,0.02889 -0.01887,0.149764 0,0.1875 0.06416,0.128324 0.0625,0.0768 0.0625,0.25 0,0.186464 0.0625,0.305346 0.0625,0.5 0,0.184407 0.120471,0.0625 0.0625,0.0625 -0.0046,0 0.0057,0.176032 0,0.1875 -0.08324,0.16649 -0.137989,0.313315 -0.25,0.5 -0.224939,0.374898 -0.816019,0.877346 -1.1875,1.125 -0.11997,0.07998 -0.197065,0.225923 -0.3125,0.3125 -0.218377,0.163783 -0.02823,-0.01142 -0.25,0.0625 -0.136384,0.04546 -0.30124,0.20458 -0.4375,0.25 -0.03953,0.01318 -0.08458,-0.01011 -0.125,0 -0.273082,0.06827 -0.614063,0.33151 -0.875,0.375 -0.236221,0.03937 -0.456837,0.06733 -0.6875,0.125 -0.309662,0.07742 -0.745938,0 -1.0625,0 -0.201195,0 -0.487786,0.03994 -0.6875,0 C 32.918232,64.28365 32.775565,64.21761 32.625,64.1875 32.443202,64.15114 32.245414,64.16158 32.0625,64.125 31.540944,64.020689 32.13889,64.11111 31.75,64 31.6218,63.838237 31.455415,63.97323 31.3125,63.9375 31.26731,63.9262 31.22917,63.89583 31.1875,63.875 31.125,63.854167 31.064601,63.82542 31,63.8125 30.812458,63.77499 30.619766,63.73307 30.4375,63.6875 30.199196,63.62792 29.979637,63.466855 29.75,63.375 29.68397,63.34859 29.503527,63.33891 29.4375,63.3125 29.36776,63.2846 29.319743,63.2154 29.25,63.1875 c -0.03869,-0.01548 -0.08773,0.01863 -0.125,0 -0.01219,-0.0061 -0.04894,-0.111439 -0.0625,-0.125 C 29.05098,63.05098 28.886516,63.01152 28.875,63 c -0.01473,-0.01473 0.01473,-0.04777 0,-0.0625 -0.03294,-0.03294 -0.08333,-0.04167 -0.125,-0.0625 -0.02083,-0.0625 -0.02297,-0.134796 -0.0625,-0.1875 -0.114186,-0.152248 -0.115566,0.01887 -0.1875,-0.125 -0.0093,-0.01863 0,-0.04167 0,-0.0625 -0.08333,-0.125 -0.166667,-0.25 -0.25,-0.375 z"
           id="path887" /><path
           style="display:inline;opacity:1;fill:#e65e40;fill-opacity:1;stroke:none;stroke-width:0.3;stroke-linecap:round;stroke-linejoin:round;stroke-miterlimit:4;stroke-dasharray:none;stroke-opacity:1"
           d="m 28.875,62.5625 c 0.208333,0.08333 0.424307,0.149653 0.625,0.25 0.01863,0.0093 -0.01863,0.05318 0,0.0625 0.03727,0.01863 0.08547,-0.01318 0.125,0 0.140879,0.04696 0.300585,0.181542 0.4375,0.25 0.106359,0.05318 0.462537,0.07502 0.5625,0.125 0.02635,0.01318 0.03455,0.05318 0.0625,0.0625 0.09375,0.03125 0.21875,-0.03125 0.3125,0 0.02795,0.0093 0.03615,0.04932 0.0625,0.0625 0.15,0.075 0.4125,-0.075 0.5625,0 0.305004,0.152502 0.823005,0.0625 1.1875,0.0625 0.139188,0 0.150734,0.02941 0.25,0.0625 0.122076,0.04069 0.143084,-0.02686 0.25,-0.0625 0.171537,-0.05718 0.463006,0.081 0.625,0 0.02635,-0.01318 0.03615,-0.04932 0.0625,-0.0625 0.0559,-0.02795 0.126866,0.01516 0.1875,0 0.04519,-0.0113 0.07905,-0.05484 0.125,-0.0625 0.0828,-0.0138 0.628444,-0.03297 0.6875,-0.0625 0.0728,-0.0364 0.114695,-0.0886 0.1875,-0.125 0.0559,-0.02795 0.128207,0.01976 0.1875,0 0.02795,-0.0093 0.04167,-0.04167 0.0625,-0.0625 0.04167,-0.02083 0.07981,-0.0512 0.125,-0.0625 0.101795,-0.02545 0.21222,-0.02907 0.3125,-0.0625 0.140843,-0.04695 0.250936,-0.208646 0.375,-0.25 0.03953,-0.01318 0.08547,0.01318 0.125,0 0.15965,-0.05322 0.458312,-0.229156 0.625,-0.3125 0.05271,-0.02635 0.07229,-0.09865 0.125,-0.125 0.30952,-0.15476 0.608972,-0.507209 0.8125,-0.8125 0.06304,-0.09456 0.182388,-0.159851 0.25,-0.25 0.0559,-0.07454 0.05912,-0.184119 0.125,-0.25 0.01473,-0.01473 0.04777,0.01473 0.0625,0 0.06014,-0.06014 0.105302,-0.355303 0.125,-0.375 0.01473,-0.01473 0.04777,0.01473 0.0625,0 0.04167,-0.04167 -0.04167,-0.08333 0,-0.125 0.01473,-0.01473 0.04777,0.01473 0.0625,0 0.01256,-0.01256 0.01992,-0.207418 0.0625,-0.25 0.109385,-0.109385 0.105877,0.19263 0.125,0.25 0.0093,0.02795 0.05318,0.03455 0.0625,0.0625 0.03618,0.108552 -0.05048,0.274049 0,0.375 0.07828,0.156566 0.0625,0.308878 0.0625,0.5 0,0.106538 0.05151,0.396983 0,0.5 -0.265303,0.530607 -0.561483,0.661686 -1.0625,1.0625 -0.434092,0.347273 -0.752885,0.563942 -1.25,0.8125 -0.09455,0.04727 -0.271705,0.03668 -0.375,0.0625 -0.166532,0.04163 -0.332937,0.154087 -0.5,0.1875 -0.06129,0.01226 -0.126866,-0.01516 -0.1875,0 -0.0063,0.0016 -0.285471,0.11599 -0.3125,0.125 -0.0936,0.0312 -0.216615,-0.02397 -0.3125,0 -0.31076,0.07769 -0.766209,-0.01543 -1,0.0625 -0.04419,0.01473 -0.07981,0.0512 -0.125,0.0625 -0.08,0.02 -0.295,0.02 -0.375,0 -0.04519,-0.0113 -0.07841,-0.0625 -0.125,-0.0625 -0.156062,0 -0.408112,0.105877 -0.625,0.0625 -0.04568,-0.0091 -0.07905,-0.05484 -0.125,-0.0625 C 32.251669,64.13569 31.934027,64.16915 31.625,64.125 31.487894,64.10541 31.329273,64.02835 31.1875,64 c -0.175775,-0.03516 -0.396078,0.0081 -0.5625,-0.0625 -0.652361,-0.276759 -1.288275,-0.590964 -1.9375,-0.875 -0.01909,-0.0084 -0.04777,0.01473 -0.0625,0 -0.02083,-0.02083 -0.04167,-0.166667 -0.0625,-0.1875 -0.01473,-0.01473 -0.04777,0.01473 -0.0625,0 -0.0308,-0.0308 -0.148311,-0.414189 -0.125,-0.4375 0.01473,-0.01473 0.04777,0.01473 0.0625,0 0.01473,-0.01473 -0.01473,-0.04777 0,-0.0625 0.112191,-0.112191 0.31057,0.0923 0.4375,0.1875 z"
           id="path888" /><g
           id="g893"
           style="display:inline"><path
             style="opacity:1;fill:#9560ce;fill-opacity:1;stroke:none;stroke-width:0.3;stroke-linecap:round;stroke-linejoin:round;stroke-miterlimit:4;stroke-dasharray:none;stroke-opacity:1"
             d="m 30.75,59.375 c -0.0625,0.08333 -0.125,0.166667 -0.1875,0.25 0,0.02083 0.0093,0.04387 0,0.0625 -0.133178,0.266356 -0.292254,1.060739 -0.1875,1.375 0.01942,0.05826 0.1875,0.618746 0.1875,0.4375"
             id="path889" /><path
             style="opacity:1;fill:#9560ce;fill-opacity:1;stroke:none;stroke-width:0.3;stroke-linecap:round;stroke-linejoin:round;stroke-miterlimit:4;stroke-dasharray:none;stroke-opacity:1"
             d="m 31.5625,59.375 c -0.297054,0.891161 0.0014,-0.0362 -0.1875,0.625 -0.0181,0.06335 -0.04652,0.123586 -0.0625,0.1875 -0.01831,0.07325 0.04991,0.325092 0,0.375 -0.01473,0.01473 -0.04777,-0.01473 -0.0625,0 -0.109626,0.109625 0.09168,0.558356 0.125,0.625 0.02789,0.05579 0.0625,0.448588 0.0625,0.3125"
             id="path890" /><path
             style="opacity:1;fill:#9560ce;fill-opacity:1;stroke:none;stroke-width:0.3;stroke-linecap:round;stroke-linejoin:round;stroke-miterlimit:4;stroke-dasharray:none;stroke-opacity:1"
             d="m 32.375,59.4375 c -0.04167,0.166667 -0.08637,0.332603 -0.125,0.5 -0.0933,0.404309 -0.156925,0.5598 -0.0625,0.9375 0.04793,0.191723 -0.02776,0.256988 0.0625,0.4375 0.025,0.05 -0.025,0.1375 0,0.1875 0.01318,0.02635 0.04932,0.03615 0.0625,0.0625 0.01863,0.03727 -0.02946,0.09554 0,0.125 0.01473,0.01473 0.04777,-0.01473 0.0625,0 0.03125,0.03125 -0.03125,0.15625 0,0.1875 0.01473,0.01473 0.04777,-0.01473 0.0625,0 0.02946,0.02946 -0.04167,0.125 0,0.125 0.02083,0 0,-0.04167 0,-0.0625"
             id="path891" /><path
             style="opacity:1;fill:#9560ce;fill-opacity:1;stroke:none;stroke-width:0.3;stroke-linecap:round;stroke-linejoin:round;stroke-miterlimit:4;stroke-dasharray:none;stroke-opacity:1"
             d="m 30,59.5 c 0.104167,0.0625 0.202203,0.136593 0.3125,0.1875 0.450383,0.207869 0.903812,0.257203 1.375,0.375 0.04519,0.0113 0.07932,0.05336 0.125,0.0625 0.150972,0.03019 0.353576,-0.04881 0.5,0 0.129231,0.04308 0.126842,0.0625 0.25,0.0625 0.140377,0 0.440117,-0.06119 0.5625,0 0.01863,0.0093 -0.01473,0.04777 0,0.0625 0.04402,0.04402 0.264784,0.01478 0.25,0 -0.03294,-0.03294 -0.08333,-0.04167 -0.125,-0.0625"
             id="path892" /><path
             style="opacity:1;fill:#9560ce;fill-opacity:1;stroke:none;stroke-width:0.3;stroke-linecap:round;stroke-linejoin:round;stroke-miterlimit:4;stroke-dasharray:none;stroke-opacity:1"
             d="m 30.0625,60.25 c 0.195368,0.05462 0.247484,0.264996 0.4375,0.3125 0.382552,0.09564 0.787931,0.245905 1.1875,0.3125 0.09576,0.01596 0.540787,0.04079 0.5625,0.0625 0.01473,0.01473 -0.01473,0.04777 0,0.0625 0.09375,0.09375 0.46875,-0.09375 0.5625,0 0.01473,0.01473 -0.01473,0.04777 0,0.0625 0.01654,0.01654 0.161765,0 0.1875,0"
             id="path893" /></g><path
           style="display:inline;opacity:1;fill:#e6e140;fill-opacity:1;stroke:none;stroke-width:0.3;stroke-linecap:round;stroke-linejoin:round;stroke-miterlimit:4;stroke-dasharray:none;stroke-opacity:1"
           d="m 43.663861,60.794962 c -0.05049,0.44273 -0.27662,0.809131 -0.486136,1.193243 -0.143387,0.262876 -0.255527,0.534758 -0.397748,0.795495 -0.06044,0.175639 -0.222031,0.284751 -0.30936,0.441942 -0.03853,0.06935 -0.04985,0.151623 -0.08839,0.220971 -0.06154,0.110777 -0.158097,0.199332 -0.220971,0.309359 -0.279248,0.488684 -0.614209,1.012858 -1.06066,1.370019 -0.23558,0.188464 -0.455519,0.362604 -0.707108,0.530331 -0.04875,0.0325 -0.08037,0.106477 -0.132584,0.132582 -0.01318,0.0066 -0.04419,-0.01473 -0.04419,0 0,0.138281 0.08072,-0.146091 0.08839,-0.176777 0.01654,-0.06615 0.10882,-0.173445 0.132583,-0.220971 0.06386,-0.127717 0.04343,-0.26286 0.08839,-0.397747 0.08443,-0.253299 0.220486,-0.483216 0.265166,-0.751301 0.01211,-0.07265 -0.01211,-0.148316 0,-0.220971 0.02795,-0.167685 0.08839,-0.312063 0.08839,-0.486136 0,-0.0118 0.03277,-0.695682 -0.04418,-0.618718 -0.02043,0.02043 0.01334,0.105899 0,0.132582 -0.05852,0.117037 -0.06629,0.176794 -0.08839,0.309359 -0.03664,0.219854 -0.169689,0.383573 -0.265165,0.574525 -0.126481,0.252961 0.02746,0.02789 -0.08839,0.220971 -0.178459,0.29743 -0.362154,0.610834 -0.574524,0.883883 -0.07064,0.09082 -0.15715,0.169433 -0.220972,0.265165 -0.02584,0.03876 -0.02023,0.09264 -0.0442,0.132583 -0.04287,0.07146 -0.124718,0.111704 -0.176776,0.176776 -0.284525,0.355655 -0.623911,0.637776 -0.972273,0.928078 -0.08002,0.06669 -0.13963,0.155898 -0.220971,0.220971 -0.137425,0.109939 -0.304394,0.162004 -0.441943,0.265165 -0.125449,0.09409 -0.597533,0.441942 -0.751301,0.441942 -0.08333,0 0.117852,-0.117851 0.176777,-0.176777 0.172467,-0.172467 0.388318,-0.434671 0.486137,-0.662913 0.02393,-0.05583 0.02287,-0.119905 0.04419,-0.176776 0.05347,-0.142592 0.146735,-0.29174 0.176777,-0.441942 0.05355,-0.267757 0.02759,-0.488815 0.132582,-0.751301 0.06457,-0.161431 0.0348,-0.325361 0.08839,-0.486136 0.01126,-0.03377 0,-0.09673 0,-0.132582 0,-0.01473 0.01474,-0.0442 0,-0.0442 -0.01474,0 0.0066,0.03102 0,0.0442 -0.01863,0.03727 -0.07521,0.04886 -0.08839,0.08839 -0.0093,0.02795 0.0093,0.06044 0,0.08839 -0.0066,0.01976 -0.02946,0.02946 -0.0442,0.04419 -0.01473,0.02946 -0.03621,0.05643 -0.04418,0.08839 -0.03337,0.133479 -0.04265,0.277836 -0.132583,0.397747 -0.06182,0.08244 -0.157701,0.139624 -0.220971,0.220971 -0.0778,0.10003 -0.136197,0.215166 -0.220971,0.309359 -0.118224,0.131362 -0.426053,0.367359 -0.574524,0.486136 -0.153716,0.122972 -0.290882,0.271863 -0.441943,0.397748 -0.195049,0.16254 -0.41135,0.293821 -0.618719,0.441942 -0.453148,0.323677 -0.920406,0.681173 -1.414214,0.928077 -0.206361,0.10318 -0.471613,0.12532 -0.662914,0.220971 -0.05893,0.02946 -0.162045,-0.02946 -0.220972,0 -0.01151,0.0058 -0.05384,0.07874 -0.08839,0.04419 -0.04309,-0.04309 0.235107,-0.344 0.353553,-0.486136 0.0929,-0.111482 0.234316,-0.272673 0.309361,-0.397747 0.02397,-0.03995 0.02023,-0.09264 0.04418,-0.132583 0.02144,-0.03573 0.06236,-0.05585 0.08839,-0.08839 0.09892,-0.123652 0.189234,-0.309061 0.265165,-0.441942 0.09015,-0.157756 0.164485,-0.335113 0.265165,-0.486136 0.06549,-0.09824 0.08756,-0.196801 0.132584,-0.309359 0.01973,-0.04932 0.07159,-0.08219 0.08839,-0.132582 0.02506,-0.07519 0.0077,-0.192194 0.0442,-0.265165 0.0035,-0.0069 0.09652,-0.220971 0.04419,-0.220971 -0.01473,0 0.01042,0.03378 0,0.04419 -0.02715,0.02715 -0.102986,0.0292 -0.132582,0.08839 -0.0251,0.05021 -0.02799,0.09232 -0.08839,0.132583 -0.05482,0.03654 -0.124073,0.04886 -0.176777,0.08839 -0.165739,0.124304 -0.323971,0.268016 -0.486137,0.397748 -0.170499,0.1364 -0.383968,0.214081 -0.574524,0.309359 -0.227661,0.11383 -0.434171,0.283377 -0.662914,0.397747 -0.495812,0.247907 0.334381,-0.235268 -0.309359,0.132583 -0.109809,0.01282 -0.140086,0.128246 -0.220971,0.176777 -0.198792,0.119274 -0.416301,0.163956 -0.618719,0.265165 -0.134831,0.06742 -0.258967,0.165458 -0.397748,0.220971 -0.192175,0.07687 -0.378579,0.09339 -0.574525,0.132582 -0.08952,0.0179 -0.176257,0.06616 -0.265165,0.08839 -0.05717,0.01429 -0.118996,-0.01156 -0.176776,0 -0.127562,0.02551 -0.267352,0.08839 -0.397749,0.08839 -0.126861,0 -0.31917,0.02455 -0.441942,0 -0.04888,-0.0098 -0.06081,-0.04419 -0.176777,-0.04419 -0.0797,0 -0.106742,-0.0442 -0.176777,-0.0442 -0.02946,0 -0.117851,0 -0.08839,0 0.45765,0 1.246425,-0.760288 1.546798,-1.06066 0.03756,-0.03756 0.05083,-0.09502 0.08839,-0.132582 0.07335,-0.07335 0.194163,-0.149969 0.265166,-0.220971 0.03699,-0.03699 0.353553,-0.497925 0.353553,-0.53033 0,-0.01069 -0.07138,0.04623 -0.176776,0.08839 -0.19559,0.07824 -0.378583,0.186789 -0.574525,0.265165 -0.19303,0.07721 -0.371711,0.214462 -0.574524,0.265165 -0.129132,0.03228 -0.270137,0.05649 -0.397749,0.08839 -0.06391,0.01598 -0.113431,0.07029 -0.176776,0.08839 -0.09342,0.102056 -0.207215,0.02376 -0.30936,0.04419 -0.07779,0.01556 -0.14318,0.07283 -0.220971,0.08839 -0.04334,0.0087 -0.08925,-0.0087 -0.132582,0 -0.0646,0.01292 -0.112863,0.07241 -0.176778,0.08839 -0.06731,0.01683 -0.152488,-0.01141 -0.220971,0 -0.05991,0.01 -0.116036,0.04419 -0.176775,0.04419 -0.04659,0 -0.0869,-0.03506 -0.132584,-0.04419 -0.143882,-0.02878 -0.399148,0.06559 -0.53033,0 -0.161954,-0.08098 -0.348662,-0.11622 -0.530331,-0.176777 -0.320117,-0.106706 0.06968,0.01274 -0.132583,-0.08839 -0.03953,-0.01976 -0.08971,0.01072 -0.132582,0 -0.02175,-0.0054 -0.265165,-0.113279 -0.265165,0 0,0.02946 0.05893,0 0.08839,0 0.01351,0 0.262274,-0.04323 0.265165,-0.04419 0.01976,-0.0066 0.02377,-0.04011 0.04419,-0.04419 0.697155,-0.13943 -0.354173,0.158014 0.353555,-0.04419 0.07628,-0.02179 0.143179,-0.07283 0.220971,-0.08839 0.05778,-0.01156 0.11961,0.01429 0.176775,0 0.249991,-0.0625 0.484895,-0.07283 0.707108,-0.220971 0.03175,-0.02117 0.43155,-0.275558 0.441943,-0.265165 0.01042,0.01042 -0.01473,0.04419 0,0.04419 0.01,0 -0.04376,-0.08795 -0.04418,-0.08839 -0.04167,-0.04167 -0.117853,0 -0.176778,0 -0.18917,0 -0.438275,0.04511 -0.618719,0 -0.03196,-0.008 -0.05608,-0.03773 -0.08839,-0.04419 -0.14143,-0.02829 -0.299672,0.02371 -0.441943,0 -0.03249,-0.0054 -0.05643,-0.0362 -0.08839,-0.0442 -0.04159,-0.0104 -0.09099,0.0104 -0.132581,0 -0.114774,-0.02869 -0.236847,-0.07172 -0.353555,-0.08839 -0.05833,-0.0083 -0.118653,0.0097 -0.176777,0 -0.03249,-0.0054 -0.05892,-0.02946 -0.08839,-0.04419 -0.04419,-0.01473 -0.08647,-0.03761 -0.132583,-0.04419 -0.05833,-0.0083 -0.118653,0.0097 -0.176776,0 -0.02211,-0.0037 -0.328735,-0.161885 -0.353555,-0.176777 -0.140769,-0.08446 -0.262714,-0.153454 -0.397747,-0.220971 -0.06732,-0.03366 -0.16408,-0.03369 -0.132583,-0.04419 0.147666,-0.04922 0.792637,-0.218113 0.883885,-0.309359 0.02329,-0.02329 0.0209,-0.0651 0.0442,-0.08839 0.06135,-0.06135 0.154378,-0.110184 0.220971,-0.176776 -0.0044,-0.08755 0.0651,-0.0209 0.08839,-0.04419 0.02084,-0.02083 -0.02083,-0.06755 0,-0.08839 0.01042,-0.01042 0.04418,0.01473 0.04418,0 0,-0.02946 -0.05892,0 -0.08839,0 -0.04643,0 -0.137765,-0.013 -0.176778,0 -0.01976,0.0066 -0.02443,0.03761 -0.04418,0.04419 -0.162995,0.05433 -0.422161,-0.07618 -0.574525,0 -0.01863,0.0093 -0.02336,0.0442 -0.04418,0.0442 -0.03793,0 -0.457234,-0.07394 -0.486137,-0.08839 -0.09408,-0.04704 -0.175963,-0.08676 -0.220971,-0.176777 -0.01318,-0.02635 0.01318,-0.06204 0,-0.08839 -0.0253,-0.05059 -0.06492,-0.0262 -0.04419,-0.08839 0.03358,-0.100748 0.08713,-0.174271 0.132583,-0.265165 0.02753,-0.05506 0.196326,-0.417297 0.220971,-0.441942 0.01042,-0.01042 0.03378,0.01042 0.04418,0 0.0878,-0.0878 -0.23225,-0.08016 -0.265165,-0.08839 -0.04653,-0.01163 -0.08006,-0.0617 -0.132582,-0.04419 -0.111064,0.03702 -0.250099,0.03666 -0.353555,0.08839 -0.34698,0.17349 -0.727189,0.424523 -0.972272,0.751301 -0.03953,0.0527 -0.05185,0.12196 -0.08839,0.176776 -0.02311,0.03467 -0.06975,0.05112 -0.08839,0.08839 -0.03614,0.07227 -0.02367,0.138861 -0.04418,0.220971 -0.04469,0.178747 -0.118489,0.355467 -0.176777,0.53033 -0.06971,0.209128 -0.0022,0.408823 -0.04419,0.618718 -0.0065,0.0323 -0.03773,0.05609 -0.04419,0.08839 -0.02382,0.119076 0,0.275106 0,0.397747 0,0.179267 -0.03277,0.474709 0.04419,0.397748 0.05208,-0.05208 -0.01444,-0.148745 0,-0.220971 0.01827,-0.09136 0.06279,-0.175581 0.08839,-0.265165 0.09759,-0.341569 0.24782,-0.636895 0.441942,-0.928078 0.17585,-0.263774 0.369171,-0.53033 0.30936,-0.53033 -0.02946,0 0.0093,0.06044 0,0.08839 -0.03424,0.102735 -0.106433,0.204762 -0.132583,0.30936 -0.01072,0.04287 0.01976,0.09305 0,0.132582 -0.07111,0.142213 -0.03054,0.245067 0,0.397748 0.01733,0.08667 -0.01733,0.178493 0,0.265165 0.02502,0.125098 0.08424,0.232699 0.132583,0.353553 0.04937,0.123416 0.05639,0.239261 0.132583,0.353554 0.07261,0.10892 0.117978,0.191762 0.176776,0.309359 0.02651,0.05303 0.106066,0.07955 0.132584,0.132582 0.04297,0.08595 0.0901,0.180208 0.132581,0.265165 0.03963,0.07926 0.122916,0.07872 0.176778,0.132583 0.06284,0.06284 0.08169,0.173425 0.176776,0.220971 0.01318,0.0066 0.03378,-0.01042 0.04419,0 0.09144,0.09144 -0.139732,-0.0036 0.04418,0.08839 0.02505,0.01253 0.211286,0.122898 0.220971,0.132583 0.01042,0.01042 -0.01042,0.03378 0,0.04419 0.01042,0.01042 0.03378,-0.01042 0.04418,0 0.01042,0.01042 -0.01042,0.03378 0,0.04419 0.01042,0.01042 0.03378,-0.01042 0.04419,0 0.01042,0.01042 -0.01042,0.03378 0,0.04419 0.02083,0.02083 0.06755,-0.02083 0.08839,0 0.01042,0.01042 -0.01473,0.04419 0,0.04419 0.01474,0 0.01474,-0.04419 0,-0.04419 -0.07383,0 0.04456,0.06209 0.08839,0.08839 0.350982,0.210589 0.70968,0.408131 1.060661,0.618719 0.136158,0.08169 0.239163,0.115248 0.397748,0.220971 0.02741,0.01827 0.01472,0.07366 0.04418,0.08839 0.02636,0.01318 0.06044,-0.0093 0.08839,0 0.03953,0.01318 0.05112,0.06976 0.08839,0.08839 0.01318,0.0066 0.03378,-0.01042 0.04418,0 0.01042,0.01042 -0.01042,0.03378 0,0.0442 0.02084,0.02083 0.06205,-0.01318 0.08839,0 0.08592,0.04296 0.108974,0.04359 0.220972,0.08839 0.157889,0.06316 0.299698,0.105655 0.441942,0.176777 0.04683,0.02341 0.126701,-0.01669 0.176778,0 0.08552,0.02851 0.148802,0.0523 0.22097,0.08839 0.07295,0.03647 0.190949,0.0071 0.265165,0.04419 0.01863,0.0093 0.02443,0.03761 0.04419,0.04419 0.02795,0.0093 0.06044,-0.0093 0.08839,0 0.05842,0.01947 0.120444,0.104416 0.176777,0.132583 0.01318,0.0066 0.03378,-0.01042 0.04418,0 0.01042,0.01042 -0.01042,0.03378 0,0.04419 0.02084,0.02083 0.06205,-0.01318 0.08839,0 0.146549,0.07327 0.343051,0.105234 0.486136,0.176777 0.06465,0.03233 0.180338,-0.02032 0.309359,0.04419 0.100704,0.05035 0.294171,-0.0076 0.397748,0.04419 0.139277,0.06964 0.283579,0.06924 0.441942,0.132583 0.04931,0.01973 0.08105,0.07551 0.132583,0.08839 0.04287,0.01072 0.09066,-0.01398 0.132582,0 0.01397,0.0047 -0.01318,0.03761 0,0.04419 0.03535,0.01768 0.09723,-0.01768 0.132583,0 0.08758,0.04379 0.07637,0.01073 0.176777,0.04419 0.01976,0.0066 0.02398,0.03914 0.04419,0.04419 0.216728,0.05418 0.635013,0.007 0.83969,-0.04419 0.182919,-0.04573 0.427441,0 0.61872,0 0.250603,0 0.547931,0.04126 0.795495,0 0.03249,-0.0054 0.05609,-0.03773 0.08839,-0.04419 0.155814,-0.03116 0.330323,0.03116 0.486136,0 0.03231,-0.0065 0.05608,-0.03773 0.08839,-0.04419 0.09943,-0.01989 0.209285,0.01668 0.30936,0 0.205273,-0.03421 0.41587,-0.04782 0.618718,-0.08839 0.217094,-0.04342 0.449664,-0.07927 0.662914,-0.132583 0.08891,-0.02223 0.175641,-0.07048 0.265165,-0.08839 0.113834,-0.02277 0.239092,-0.0213 0.353554,-0.04419 0.123971,-0.02479 0.23206,-0.09787 0.353554,-0.132583 0.127573,-0.03645 0.278254,-0.02864 0.397747,-0.08839 0.316592,-0.158296 0.650274,-0.325137 0.972273,-0.486136 0.106544,-0.05327 0.251616,-0.07142 0.353553,-0.132583 0.03573,-0.02144 0.05221,-0.06772 0.08839,-0.08839 0.170909,-0.09766 0.275683,-0.06608 0.44194,-0.132583 0.113081,-0.04523 0.202186,-0.123189 0.309361,-0.176776 0.138514,-0.06926 0.297859,-0.119144 0.441941,-0.176777 0.152821,-0.06113 0.03074,-0.02305 0.176777,-0.132583 0.06486,-0.04865 0.513435,-0.292462 0.574524,-0.353553 0.02329,-0.02329 0.02091,-0.0651 0.04419,-0.08839 0.05791,-0.05791 0.203894,-0.12776 0.265166,-0.176777 0.06507,-0.05206 0.11011,-0.126777 0.176776,-0.176777 0.07884,-0.05913 0.196428,-0.108038 0.265166,-0.176776 0.06629,-0.06629 0.110485,-0.15468 0.176776,-0.220971 0.02329,-0.02329 0.06098,-0.02592 0.08839,-0.04419 0.135462,-0.09031 0.308665,-0.264123 0.397748,-0.397748 0.05439,-0.08159 0.07819,-0.183576 0.132582,-0.265165 0.08839,-0.132583 0,0.08839 0.132583,-0.132583 0.02397,-0.03995 0.02336,-0.09091 0.0442,-0.132582 0.01863,-0.03727 0.06528,-0.05372 0.08839,-0.08839 0.153822,-0.230734 0.282315,-0.494271 0.441942,-0.707107 0.06845,-0.09126 0.07635,-0.215641 0.132583,-0.309359 0.05813,-0.09689 0.131997,-0.153216 0.176776,-0.265165 0.05092,-0.127297 0.07133,-0.275235 0.132583,-0.397748 0.0744,-0.148786 0.04374,0.135788 0.08839,-0.176777 0.0083,-0.05833 -0.0065,-0.118211 0,-0.176776 0.02522,-0.227017 0.132076,-0.439409 0.176778,-0.662913 0.01156,-0.05778 -0.01156,-0.118995 0,-0.176777 0.02394,-0.119686 0.06834,-0.233288 0.08839,-0.353553 0.02804,-0.168268 -0.009,-0.359142 0,-0.53033 0.02869,-0.545103 0.05893,-1.090123 0.08839,-1.635185 z"
           id="path894" /></g></g></g></svg>
