<?xml version="1.0" encoding="UTF-8" standalone="no"?>
<!-- Created with Inkscape (http://www.inkscape.org/) -->

<svg
   width="7.1013336"
   height="6.2602921"
   viewBox="0 0 7.1013336 6.2602921"
   version="1.1"
   id="svg1"
   xml:space="preserve"
   xmlns="http://www.w3.org/2000/svg"
   xmlns:svg="http://www.w3.org/2000/svg"><defs
     id="defs1" /><g
     id="g163"
     style="display:inline"
     transform="translate(-72.079086,-73.995689)"><g
       id="g122"
       transform="translate(6.4783047,9.1422805)"><path
         style="opacity:1;fill:none;fill-opacity:1;stroke:#e33629;stroke-width:0.3;stroke-linecap:round;stroke-linejoin:round;stroke-miterlimit:4;stroke-dasharray:none;stroke-opacity:1"
         d="m 67.628769,66.291956 c 0.04281,-0.07135 0.106802,-0.133708 0.128435,-0.214057 0.07931,-0.294581 0.121094,-0.598128 0.171247,-0.899046 0.007,-0.04223 -0.01915,-0.09014 0,-0.128436 0.07966,-0.159322 0.02745,0.09772 0.04281,0.128436 0.01805,0.0361 0.06323,0.05204 0.08562,0.08562 0.112776,0.169164 0.109181,0.408863 0.25687,0.556552 0.118434,0.118433 0.210861,-0.03233 0.299682,-0.08562 0.245969,-0.147582 0.05253,0.0331 0.171247,-0.08562"
         id="path140" /><path
         style="opacity:1;fill:none;fill-opacity:1;stroke:#e33629;stroke-width:0.3;stroke-linecap:round;stroke-linejoin:round;stroke-miterlimit:4;stroke-dasharray:none;stroke-opacity:1"
         d="m 71.781505,66.677262 c -0.302493,-0.102225 0.690293,-0.60467 0.513741,-0.428118"
         id="path141" /><path
         style="opacity:1;fill:none;fill-opacity:1;stroke:#e33629;stroke-width:0.3;stroke-linecap:round;stroke-linejoin:round;stroke-miterlimit:4;stroke-dasharray:none;stroke-opacity:1"
         d="m 70.711212,70.230635 c 0.08562,0.02854 0.177974,0.04179 0.256871,0.08562 0.179913,0.09995 0.346263,0.222867 0.51374,0.342494 0.0076,0.0054 0.116991,0.13988 0.171247,0.08562 0.114099,-0.114099 -0.210106,-0.904974 -0.04281,-1.155916 0.12501,-0.187515 0.236337,-0.121591 0.385306,-0.171247 0.01915,-0.0064 0.02263,-0.04281 0.04281,-0.04281 0.01427,0 -0.01276,0.03643 0,0.04281 0.06489,0.03245 0.195329,-0.02408 0.214059,-0.04281 0.119689,-0.119689 -0.286085,-0.51374 -0.08562,-0.51374"
         id="path142" /><path
         style="opacity:1;fill:none;fill-opacity:1;stroke:#e33629;stroke-width:0.3;stroke-linecap:round;stroke-linejoin:round;stroke-miterlimit:4;stroke-dasharray:none;stroke-opacity:1"
         d="m 72.166811,67.533496 c -0.193224,0.372609 0.385305,0.210011 0.385305,0.385305 0,0.01427 -0.03005,-0.0064 -0.04281,0 -0.04362,0.02181 -0.0937,0.0937 -0.128435,0.128435"
         id="path143" /><path
         style="opacity:1;fill:none;fill-opacity:1;stroke:#e33629;stroke-width:0.3;stroke-linecap:round;stroke-linejoin:round;stroke-miterlimit:4;stroke-dasharray:none;stroke-opacity:1"
         d="m 67.243464,69.588459 c 0.04281,0.385305 0.08562,0.770611 0.128435,1.155916 -0.05708,0.07135 -0.23586,0.278671 -0.171247,0.214059 0.07881,-0.07881 0.130484,-0.183128 0.214058,-0.256871 0.175221,-0.154606 0.76872,-0.686405 1.113105,-0.428117 0.07841,0.05881 -0.109772,0.351826 -0.04281,0.385306 0.04277,0.02138 0.162938,-0.124281 0.171247,-0.128435 0.03224,-0.01612 0.222117,-0.01158 0.25687,0 0.08285,0.02761 0.115684,0.129574 0.171247,0.171246 0.14411,0.108083 0.23485,0 0.342494,0"
         id="path144" /><path
         style="opacity:1;fill:none;fill-opacity:1;stroke:#e33629;stroke-width:0.3;stroke-linecap:round;stroke-linejoin:round;stroke-miterlimit:4;stroke-dasharray:none;stroke-opacity:1"
         d="m 70.069037,70.615939 c 0.05708,0.114165 0.114164,0.228329 0.171246,0.342494"
         id="path145" /><path
         style="opacity:1;fill:none;fill-opacity:1;stroke:#e33629;stroke-width:0.3;stroke-linecap:round;stroke-linejoin:round;stroke-miterlimit:4;stroke-dasharray:none;stroke-opacity:1"
         d="m 66.986593,68.903471 c -0.225581,0.09175 -0.388457,0.342493 -0.642175,0.342493"
         id="path146" /><path
         style="opacity:1;fill:none;fill-opacity:1;stroke:#e33629;stroke-width:0.3;stroke-linecap:round;stroke-linejoin:round;stroke-miterlimit:4;stroke-dasharray:none;stroke-opacity:1"
         d="m 66.729723,66.934133 c -0.09989,0.01427 -0.200733,0.02302 -0.299682,0.04281 -0.186696,0.03734 -0.372588,0.07938 -0.556552,0.128435 -0.429231,0.114462 0.365705,0.334654 0.385305,0.342494 0.04777,0.01911 0.09205,0.04924 0.128435,0.08562 0.01054,0.01054 0.0096,0.237758 0,0.25687 -0.190843,0.381687 0.0169,-0.324468 -0.128435,0.25687"
         id="path147" /><path
         style="opacity:1;fill:none;fill-opacity:1;stroke:#e33629;stroke-width:0.3;stroke-linecap:round;stroke-linejoin:round;stroke-miterlimit:4;stroke-dasharray:none;stroke-opacity:1"
         d="M 66.943782,66.377581 C 66.843892,66.220604 66.743994,66.063628 66.6441,65.906652"
         id="path148" /><path
         style="opacity:1;fill:none;fill-opacity:1;stroke:#e33629;stroke-width:0.3;stroke-linecap:round;stroke-linejoin:round;stroke-miterlimit:4;stroke-dasharray:none;stroke-opacity:1"
         d="m 69.683731,65.778216 c 0.125987,-0.440954 0.03517,-0.208865 0.299682,-0.684988"
         id="path149" /><path
         style="opacity:1;fill:none;fill-opacity:1;stroke:#e33629;stroke-width:0.3;stroke-linecap:round;stroke-linejoin:round;stroke-miterlimit:4;stroke-dasharray:none;stroke-opacity:1"
         d="m 70.497154,65.735405 c 0.01427,0.08562 -0.02941,0.208719 0.04281,0.25687 0.295164,0.196776 0.490224,-0.247223 0.7278,-0.128435 0.03829,0.01915 0,0.08562 0,0.128435 0,0.387365 -0.07776,0.342494 0.25687,0.342494"
         id="path150" /><path
         style="opacity:1;fill:none;fill-opacity:1;stroke:#e33629;stroke-width:0.3;stroke-linecap:round;stroke-linejoin:round;stroke-miterlimit:4;stroke-dasharray:none;stroke-opacity:1"
         d="m 70.796836,66.934133 c -0.230736,0.03699 -0.214059,0.08676 -0.214059,0.299682 0,0.02854 -0.01583,0.06188 0,0.08562 0.01229,0.01844 0.511569,0.202813 0.556552,0.214059 0.02769,0.0069 0.06544,-0.02018 0.08562,0 0.01858,0.01858 -0.01137,0.456898 0,0.51374 0.01888,0.09438 0.05461,0.134334 0.128435,0.171247 0.01276,0.0064 0.03272,-0.01009 0.04281,0 0.05633,0.05633 -0.04281,0.243647 -0.04281,0.299682"
         id="path152" /><path
         style="opacity:1;fill:none;fill-opacity:1;stroke:#e33629;stroke-width:0.3;stroke-linecap:round;stroke-linejoin:round;stroke-miterlimit:4;stroke-dasharray:none;stroke-opacity:1"
         d="m 67.500334,68.218484 c -0.07205,-0.147848 0.753266,-0.35334 0.856234,-0.08562 0.04296,0.111689 -0.103013,0.631495 -0.08562,0.770612 0.0022,0.01765 0.196404,-0.01765 0.214058,0 0.01009,0.01009 -0.01009,0.03272 0,0.04281 0.01009,0.01009 0.03272,-0.01009 0.04281,0 0.01009,0.01009 -0.0064,0.03005 0,0.04281 0.05179,0.103582 0.193822,0.171246 0.299682,0.171246"
         id="path153" /><path
         style="opacity:1;fill:none;fill-opacity:1;stroke:#e33629;stroke-width:0.3;stroke-linecap:round;stroke-linejoin:round;stroke-miterlimit:4;stroke-dasharray:none;stroke-opacity:1"
         d="m 70.111848,69.245964 c 0.176049,-0.528146 -0.04428,-0.111897 0.342494,0.04281 0.119983,0.04799 0.25687,-0.02854 0.385305,-0.04281"
         id="path154" /><path
         style="opacity:1;fill:none;fill-opacity:1;stroke:#e33629;stroke-width:0.3;stroke-linecap:round;stroke-linejoin:round;stroke-miterlimit:4;stroke-dasharray:none;stroke-opacity:1"
         d="m 68.65625,66.762885 c 0.312518,-0.312518 0.09052,-0.171246 0.770611,-0.171246"
         id="path155" /></g></g></svg>
