<?xml version="1.0" encoding="UTF-8" standalone="no"?>
<!-- Created with Inkscape (http://www.inkscape.org/) -->

<svg
   width="10.960114"
   height="11.056179"
   viewBox="0 0 10.960114 11.056179"
   version="1.1"
   id="svg1"
   xml:space="preserve"
   xmlns="http://www.w3.org/2000/svg"
   xmlns:svg="http://www.w3.org/2000/svg"><defs
     id="defs1" /><g
     id="g163"
     style="display:inline"
     transform="translate(-68.34874,-57.121632)"><g
       id="g162"
       transform="translate(6.4783047,9.1422805)"><path
         style="opacity:1;fill:none;fill-opacity:1;stroke:#e33629;stroke-width:0.3;stroke-linecap:round;stroke-linejoin:round;stroke-miterlimit:4;stroke-dasharray:none;stroke-opacity:1"
         d="m 67.457522,50.10913 c 0.317526,-0.169686 0.53953,-0.458205 0.770611,-0.727799 0.165742,-0.193365 0.305799,-0.406714 0.470929,-0.599364 0.305089,-0.30509 -0.02436,0.04115 0.214058,-0.256871 0.10763,-0.134537 0.210852,-0.209248 0.299682,-0.342493 0.0177,-0.02655 0.08562,-0.0109 0.08562,-0.04281 0,-0.01427 -0.0383,-0.01354 -0.04281,0 -0.01354,0.04061 0.01686,0.08908 0,0.128435 -0.02811,0.06558 -0.08562,0.114165 -0.128435,0.171247 -0.02854,0.07135 -0.05864,0.142102 -0.08562,0.214059 -0.162107,0.432284 -0.266611,0.829054 -0.342494,1.284351 -0.0132,0.07921 -0.09276,0.463788 -0.04281,0.513741 0.01009,0.01009 0.03272,-0.01009 0.04281,0 0.01009,0.01009 -0.01009,0.03272 0,0.04281 0.08286,0.08286 0.701376,-0.245833 0.770611,-0.299682 0.07965,-0.06195 0.138117,-0.14761 0.214058,-0.214058 0.132338,-0.115796 0.556552,-0.296168 0.556552,-0.470929"
         id="path130" /><path
         style="opacity:1;fill:none;fill-opacity:1;stroke:#e33629;stroke-width:0.3;stroke-linecap:round;stroke-linejoin:round;stroke-miterlimit:4;stroke-dasharray:none;stroke-opacity:1"
         d="m 71.096518,50.365999 c -0.771709,0.712346 -0.384286,0.32917 -1.155917,1.155916"
         id="path131" /><path
         style="opacity:1;fill:none;fill-opacity:1;stroke:#e33629;stroke-width:0.3;stroke-linecap:round;stroke-linejoin:round;stroke-miterlimit:4;stroke-dasharray:none;stroke-opacity:1"
         d="m 64.503514,54.261865 c 0.01427,0.25687 0.106357,0.521316 0.04281,0.770612 -0.126356,0.495705 -0.374348,0.953377 -0.599364,1.412785 -0.118437,0.24181 -0.278761,0.460954 -0.428117,0.684989 -0.0079,0.01187 0,-0.02854 0,-0.04281 0,-0.09869 -0.01009,-0.05251 0.128435,-0.171246 0.186024,-0.159449 0.215586,-0.152412 0.470929,-0.256871 0.314286,-0.128572 0.689815,-0.28883 1.027481,-0.385306 0.239774,-0.06851 0.489924,-0.09195 0.727799,-0.171245 0.08249,-0.0275 0.120608,-0.05847 0.171247,0.04281 0.02804,0.05608 -0.03206,0.128241 -0.04281,0.171246 -0.02913,0.116506 0.01554,0.2334 0.04281,0.342495 0.01576,0.06303 -0.04281,0.107166 -0.04281,0.171246"
         id="path132" /><path
         style="opacity:1;fill:none;fill-opacity:1;stroke:#e33629;stroke-width:0.3;stroke-linecap:round;stroke-linejoin:round;stroke-miterlimit:4;stroke-dasharray:none;stroke-opacity:1"
         d="m 67.286275,56.787756 c -0.128435,0.22833 -0.25687,0.456659 -0.385305,0.684988"
         id="path133" /><path
         style="opacity:1;fill:none;fill-opacity:1;stroke:#e33629;stroke-width:0.3;stroke-linecap:round;stroke-linejoin:round;stroke-miterlimit:4;stroke-dasharray:none;stroke-opacity:1"
         d="m 67.800016,58.885531 c 0.02538,-0.109971 0.303692,-1.476552 0.470929,-1.75528 0.02937,-0.04895 0.123088,-0.03065 0.171247,0 0.292745,0.186291 0.493316,0.600018 0.813422,0.813422 0.138459,0.09231 0.07825,-0.383876 0.08562,-0.428117 0.05544,-0.332619 0.245081,-0.46307 0.51374,-0.642177"
         id="path134" /><path
         style="opacity:1;fill:none;fill-opacity:1;stroke:#e33629;stroke-width:0.3;stroke-linecap:round;stroke-linejoin:round;stroke-miterlimit:4;stroke-dasharray:none;stroke-opacity:1"
         d="m 70.754024,54.004995 c -0.07518,0.375904 -0.155935,0.636967 0.128435,1.070293 0.162924,0.248266 0.488043,0.338534 0.727799,0.51374 0.131371,0.096 0.259375,0.196648 0.385306,0.299683 0.03124,0.02556 0.04952,0.06757 0.08562,0.08562 0.01276,0.0064 0.01354,-0.0383 0,-0.04281 -0.04062,-0.01354 -0.08782,0.01354 -0.128435,0 -0.04881,-0.01627 -0.08241,-0.06261 -0.128435,-0.08562 -0.08073,-0.04036 -0.173913,-0.05007 -0.25687,-0.08562 -0.158505,-0.06793 -0.276941,-0.181282 -0.428118,-0.25687 -0.152432,-0.07622 -0.313641,-0.09698 -0.470928,-0.128436 -0.03129,-0.0063 -0.05371,-0.04281 -0.08562,-0.04281 -0.05919,0 -0.07952,0.256978 -0.08562,0.299682 -0.02058,0.144069 -0.07245,0.283183 -0.08562,0.428117 -0.02407,0.264735 0.04281,0.51154 0.04281,0.770611"
         id="path135" /><path
         style="opacity:1;fill:none;fill-opacity:1;stroke:#e33629;stroke-width:0.3;stroke-linecap:round;stroke-linejoin:round;stroke-miterlimit:4;stroke-dasharray:none;stroke-opacity:1"
         d="m 70.582777,52.378151 c 0.128435,0.128435 0.231735,0.288313 0.385306,0.385305 0.125968,0.07956 0.284158,0.09005 0.428117,0.128435 0.01178,0.0031 0.271137,0.07136 0.299682,0.04281 0.01009,-0.01009 -0.01427,-0.04281 0,-0.04281 0.0529,0 0.04281,0.100401 0.04281,0"
         id="path136" /><path
         style="opacity:1;fill:none;fill-opacity:1;stroke:#e33629;stroke-width:0.3;stroke-linecap:round;stroke-linejoin:round;stroke-miterlimit:4;stroke-dasharray:none;stroke-opacity:1"
         d="m 64.631949,51.821598 c -1.16006,0.915837 -0.395143,0.41163 -1.541221,0.98467 -0.102907,0.05145 -0.196776,0.119793 -0.299682,0.171247 -0.01276,0.0064 -0.04281,-0.01427 -0.04281,0 0,0.04689 0.400392,-0.121504 0.428117,-0.128436"
         id="path137" /><path
         style="opacity:1;fill:none;fill-opacity:1;stroke:#e33629;stroke-width:0.3;stroke-linecap:round;stroke-linejoin:round;stroke-miterlimit:4;stroke-dasharray:none;stroke-opacity:1"
         d="m 65.959112,50.066318 c -0.685362,0.159757 -1.39156,-0.339976 -1.883715,-0.770611 -0.04624,-0.04046 -0.230533,-0.25687 -0.299682,-0.25687 -0.01427,0 -0.0073,0.03057 0,0.04281 0.10994,0.183233 0.153705,0.180297 0.299682,0.342493 0.236216,0.262462 0.46262,0.534896 0.727799,0.770611 0.03469,0.03084 0.308057,0.210955 0.342494,0.256871 0.04611,0.06148 0.05126,0.145322 0.08562,0.214058"
         id="path138" /><path
         style="opacity:1;fill:none;fill-opacity:1;stroke:#e33629;stroke-width:0.3;stroke-linecap:round;stroke-linejoin:round;stroke-miterlimit:4;stroke-dasharray:none;stroke-opacity:1"
         d="m 64.332267,53.191572 c 0.271141,0.114165 0.542282,0.22833 0.813423,0.342495"
         id="path139" /><path
         style="opacity:1;fill:none;fill-opacity:1;stroke:#e33629;stroke-width:0.3;stroke-linecap:round;stroke-linejoin:round;stroke-miterlimit:4;stroke-dasharray:none;stroke-opacity:1"
         d="m 71.3962,53.662502 c 0.707417,-0.476365 0.387864,-0.214059 1.284351,-0.214059"
         id="path156" /><path
         style="opacity:1;fill:none;fill-opacity:1;stroke:#e33629;stroke-width:0.3;stroke-linecap:round;stroke-linejoin:round;stroke-miterlimit:4;stroke-dasharray:none;stroke-opacity:1"
         d="m 62.020435,53.277197 c 1.101809,-0.07345 0.436149,-0.102626 1.969338,0.342492"
         id="path157" /><path
         style="opacity:1;fill:none;fill-opacity:1;stroke:#e33629;stroke-width:0.3;stroke-linecap:round;stroke-linejoin:round;stroke-miterlimit:4;stroke-dasharray:none;stroke-opacity:1"
         d="m 65.359748,51.307858 c 0.135778,0.226295 0.128435,0.130847 0.128435,0.25687"
         id="path158" /><path
         style="opacity:1;fill:none;fill-opacity:1;stroke:#e33629;stroke-width:0.3;stroke-linecap:round;stroke-linejoin:round;stroke-miterlimit:4;stroke-dasharray:none;stroke-opacity:1"
         d="m 66.729723,50.066318 c -0.01427,0.199788 -0.02854,0.399576 -0.04281,0.599364"
         id="path159" /><path
         style="opacity:1;fill:none;fill-opacity:1;stroke:#e33629;stroke-width:0.3;stroke-linecap:round;stroke-linejoin:round;stroke-miterlimit:4;stroke-dasharray:none;stroke-opacity:1"
         d="m 70.240283,51.864409 c 0.185518,-0.05708 0.371035,-0.114165 0.556553,-0.171247"
         id="path160" /><path
         style="opacity:1;fill:none;fill-opacity:1;stroke:#e33629;stroke-width:0.3;stroke-linecap:round;stroke-linejoin:round;stroke-miterlimit:4;stroke-dasharray:none;stroke-opacity:1"
         d="m 66.344418,57.215873 c -0.09989,0.08562 -0.199788,0.171247 -0.299682,0.256871"
         id="path161" /></g></g></svg>
